<svg xmlns="http://www.w3.org/2000/svg" xmlns:xlink="http://www.w3.org/1999/xlink" width="1920" height="1080" viewBox="0 0 1920 1080">
  <defs>
    <clipPath id="clip-Web_1920_1">
      <rect width="1920" height="1080"/>
    </clipPath>
  </defs>
  <g id="Web_1920_1" data-name="Web 1920 – 1" clip-path="url(#clip-Web_1920_1)">
    <rect width="1920" height="1080" fill="#fff"/>
    <g id="Scattered-Forcefields">
      <rect id="Rectangle_1" data-name="Rectangle 1" width="1920" height="1080" fill="#73be88"/>
      <g id="Group_3" data-name="Group 3" transform="translate(282.685 280.875)">
        <g id="Group_1" data-name="Group 1" transform="translate(-129.369 37.25)">
          <path id="Path_1" data-name="Path 1" d="M1409,581l41.35-70L1490,581Z" transform="translate(-444 -624.193)" fill="rgba(255,255,255,0)" stroke="#fff" stroke-miterlimit="10" stroke-width="2"/>
          <circle id="Ellipse_1" data-name="Ellipse 1" cx="40" cy="40" r="40" fill="rgba(255,255,255,0)" stroke="#dfdfdf" stroke-miterlimit="10" stroke-width="4"/>
          <path id="Path_2" data-name="Path 2" d="M400.86,735.5H317.13a41.865,41.865,0,1,1,83.73,0Z" transform="translate(-302 -176.264)" fill="rgba(255,255,255,0)" stroke="#dedede" stroke-miterlimit="10" stroke-width="2"/>
        </g>
        <g id="Group_2" data-name="Group 2" transform="translate(95 85)">
          <path id="Path_3" data-name="Path 3" d="M149.8,345.2l-31.4,44.6,31.4,44.6,31.4-44.6Z" transform="translate(105.6 35.2)" fill="rgba(255,255,255,0)" stroke="#fff" stroke-miterlimit="10" stroke-width="4"/>
          <rect id="Rectangle_2" data-name="Rectangle 2" width="100" height="100" transform="translate(907.6 425)" fill="rgba(255,255,255,0)" stroke="#fff" stroke-miterlimit="10" stroke-width="8"/>
          <path id="Path_4" data-name="Path 4" d="M1426.8,132.4l-21.1,36.4h-42l-21-36.4,21-36.4h42Z" transform="translate(-135.369 -96)" fill="rgba(239,239,239,0)" stroke="#fff" stroke-miterlimit="10" stroke-width="4"/>
        </g>
      </g>
    </g>
    <path id="waves_1_" data-name="waves(1)" d="M514.224,67.775c92.8,13.611,182.656,38.008,275.2,52.8,131.824,21.092,269.1,22.366,400.72.492,127.9-21.205,260.528-72.925,386.912-99.2C1689.136-1.441,1811.5-11.041,1920,18.086V138.972H0v-34.5c163.945-49.013,341.781-61.7,514.224-36.7Z" transform="translate(0 941.028)" fill="#f4f7fd"/>
    <path id="waves_1_2" data-name="waves(1)" d="M514.224,91.121c92.8,18.3,182.656,51.1,275.2,70.993,131.824,28.357,269.1,30.07,400.72.661,127.9-28.509,260.528-98.044,386.912-133.371C1689.136-1.937,1811.5-14.844,1920,24.316V186.841H0V140.456C163.945,74.561,341.781,57.5,514.224,91.121Z" transform="translate(0 893.159)" fill="rgba(244,247,253,0.2)"/>
  </g>
</svg>
